# xmcd
#
# Track frame offsets:
#	150
#	10612
#	22503
#	32166
#	43275
#	54630
#	70144
#	81064
#	100548
#	118825
#	142346
#	153773
#	165175
#	175830
#	188119
#	199094
#	212587
#	223698
#	235354
#	251626
#
# Disc length: 3743 seconds
#
# Revision: 1
# Processed by: cddbd v1.5.2PL0 Copyright (c) Steve Scherf et al.
# Submitted via: dBpowerAMP V4.0
#
DISCID=0a0e9d14
DTITLE=Various Artist - Christmas in the Groove
DYEAR=1900
DGENRE=Blues
TTITLE0=Smokey Robinson and the Miracles - Winter Wonderland
TTITLE1=Jackson 5, (The) - Frosty the Snowman
TTITLE2=Diana Ross and the Supremes - Joy to the World
TTITLE3=Stevie Wonder - What Christmas Means to Me
TTITLE4=Micheal Jackson - Rockin' Robin
TTITLE5=Marvin Gaye - I Want to Come Home for Christmas
TTITLE6=Smokey Robinson and the Miracles - I'll Be Home for Christmas
TTITLE7=Four Tops, (The) - White Christmas
TTITLE8=Diana Ross - This Christmas
TTITLE9=Jackson 5, (The) - Have Yourself A Merry Little Christmas
TTITLE10=Stevie Wonder - Christmastime
TTITLE11=Marvin Gaye - the Christmas Song
TTITLE12=Temptations, (The) - Silent Night
TTITLE13=Four Tops, (The) - Away in A Manger
TTITLE14=Diana Ross and the Supremes - Little Bright Star
TTITLE15=Jackson 5, (The) - I Saw Mommy Kissing Santa Claus
TTITLE16=Smokey Robinson and the Miracles - Noel
TTITLE17=Kim Weston - Wish You A Merry Christmas
TTITLE18=Micheal Jackson - Little Christmas Tree
TTITLE19=Four Tops, (The) - 'twas the Night Before Christmas
EXTD=
EXTT0=
EXTT1=
EXTT2=
EXTT3=
EXTT4=
EXTT5=
EXTT6=
EXTT7=
EXTT8=
EXTT9=
EXTT10=
EXTT11=
EXTT12=
EXTT13=
EXTT14=
EXTT15=
EXTT16=
EXTT17=
EXTT18=
EXTT19=
PLAYORDER=
